<?xml version="1.0" encoding="UTF-8" standalone="no"?>
<!DOCTYPE svg PUBLIC "-//W3C//DTD SVG 1.1//EN"
 "http://www.w3.org/Graphics/SVG/1.1/DTD/svg11.dtd">
<!-- Generated by graphviz version 2.36.0 (20140111.2315)
 -->
<!-- Title: controllers_diagram Pages: 1 -->
<svg width="879pt" height="817pt"
 viewBox="0.00 0.00 879.00 817.00" xmlns="http://www.w3.org/2000/svg" xmlns:xlink="http://www.w3.org/1999/xlink">
<g id="graph0" class="graph" transform="scale(1 1) rotate(0) translate(4 813)">
<title>controllers_diagram</title>
<polygon fill="none" stroke="none" points="-4,4 -4,-813 875,-813 875,4 -4,4"/>
<!-- _diagram_info -->
<g id="node1" class="node"><title>_diagram_info</title>
<text text-anchor="start" x="603" y="-318.6" font-family="Times,serif" font-size="13.00">Controllers diagram</text>
<text text-anchor="start" x="603" y="-304.6" font-family="Times,serif" font-size="13.00">Date: Mar 24 2016 &#45; 17:15</text>
<text text-anchor="start" x="603" y="-290.6" font-family="Times,serif" font-size="13.00">Migration version: 20160206152023</text>
<text text-anchor="start" x="603" y="-276.6" font-family="Times,serif" font-size="13.00">Generated by RailRoady 1.4.2</text>
<text text-anchor="start" x="603" y="-262.6" font-family="Times,serif" font-size="13.00">http://railroady.prestonlee.com</text>
</g>
<!-- GuestsController -->
<g id="node2" class="node"><title>GuestsController</title>
<path fill="none" stroke="black" d="M692,-493.5C692,-493.5 777,-493.5 777,-493.5 783,-493.5 789,-499.5 789,-505.5 789,-505.5 789,-634.5 789,-634.5 789,-640.5 783,-646.5 777,-646.5 777,-646.5 692,-646.5 692,-646.5 686,-646.5 680,-640.5 680,-634.5 680,-634.5 680,-505.5 680,-505.5 680,-499.5 686,-493.5 692,-493.5"/>
<text text-anchor="middle" x="734.5" y="-631.3" font-family="Times,serif" font-size="14.00">GuestsController</text>
<polyline fill="none" stroke="black" points="680,-623.5 789,-623.5 "/>
<text text-anchor="start" x="688" y="-608.3" font-family="Times,serif" font-size="14.00">create</text>
<text text-anchor="start" x="688" y="-593.3" font-family="Times,serif" font-size="14.00">index</text>
<text text-anchor="start" x="688" y="-578.3" font-family="Times,serif" font-size="14.00">new</text>
<polyline fill="none" stroke="black" points="680,-570.5 789,-570.5 "/>
<polyline fill="none" stroke="black" points="680,-546.5 789,-546.5 "/>
<text text-anchor="start" x="688" y="-531.3" font-family="Times,serif" font-size="14.00">_layout</text>
<text text-anchor="start" x="688" y="-516.3" font-family="Times,serif" font-size="14.00">find_event</text>
<text text-anchor="start" x="688" y="-501.3" font-family="Times,serif" font-size="14.00">guest_params</text>
</g>
<!-- SearchController -->
<g id="node3" class="node"><title>SearchController</title>
<path fill="none" stroke="black" d="M12,-714.5C12,-714.5 97,-714.5 97,-714.5 103,-714.5 109,-720.5 109,-726.5 109,-726.5 109,-796.5 109,-796.5 109,-802.5 103,-808.5 97,-808.5 97,-808.5 12,-808.5 12,-808.5 6,-808.5 0,-802.5 0,-796.5 0,-796.5 0,-726.5 0,-726.5 0,-720.5 6,-714.5 12,-714.5"/>
<text text-anchor="middle" x="54.5" y="-793.3" font-family="Times,serif" font-size="14.00">SearchController</text>
<polyline fill="none" stroke="black" points="0,-785.5 109,-785.5 "/>
<polyline fill="none" stroke="black" points="0,-761.5 109,-761.5 "/>
<polyline fill="none" stroke="black" points="0,-737.5 109,-737.5 "/>
<text text-anchor="start" x="8" y="-722.3" font-family="Times,serif" font-size="14.00">_layout</text>
</g>
<!-- ApplicationController -->
<g id="node4" class="node"><title>ApplicationController</title>
<path fill="none" stroke="black" d="M607,-374.5C607,-374.5 777,-374.5 777,-374.5 783,-374.5 789,-380.5 789,-386.5 789,-386.5 789,-455.5 789,-455.5 789,-461.5 783,-467.5 777,-467.5 777,-467.5 607,-467.5 607,-467.5 601,-467.5 595,-461.5 595,-455.5 595,-455.5 595,-386.5 595,-386.5 595,-380.5 601,-374.5 607,-374.5"/>
<text text-anchor="middle" x="692" y="-452.3" font-family="Times,serif" font-size="14.00">ApplicationController</text>
<polyline fill="none" stroke="black" points="595,-444.5 789,-444.5 "/>
<polyline fill="none" stroke="black" points="595,-420.5 789,-420.5 "/>
<text text-anchor="start" x="603" y="-405.3" font-family="Times,serif" font-size="14.00">configure_permitted_parameters</text>
<polyline fill="none" stroke="black" points="595,-397.5 789,-397.5 "/>
<text text-anchor="start" x="603" y="-382.3" font-family="Times,serif" font-size="14.00">_layout</text>
</g>
<!-- Users::UnlocksController -->
<g id="node5" class="node"><title>Users::UnlocksController</title>
<path fill="none" stroke="black" d="M692,-680.5C692,-680.5 823,-680.5 823,-680.5 829,-680.5 835,-686.5 835,-692.5 835,-692.5 835,-762.5 835,-762.5 835,-768.5 829,-774.5 823,-774.5 823,-774.5 692,-774.5 692,-774.5 686,-774.5 680,-768.5 680,-762.5 680,-762.5 680,-692.5 680,-692.5 680,-686.5 686,-680.5 692,-680.5"/>
<text text-anchor="middle" x="757.5" y="-759.3" font-family="Times,serif" font-size="14.00">Users::UnlocksController</text>
<polyline fill="none" stroke="black" points="680,-751.5 835,-751.5 "/>
<polyline fill="none" stroke="black" points="680,-727.5 835,-727.5 "/>
<polyline fill="none" stroke="black" points="680,-703.5 835,-703.5 "/>
<text text-anchor="start" x="688" y="-688.3" font-family="Times,serif" font-size="14.00">_layout</text>
</g>
<!-- Users::SessionsController -->
<g id="node6" class="node"><title>Users::SessionsController</title>
<path fill="none" stroke="black" d="M726,-0.5C726,-0.5 859,-0.5 859,-0.5 865,-0.5 871,-6.5 871,-12.5 871,-12.5 871,-82.5 871,-82.5 871,-88.5 865,-94.5 859,-94.5 859,-94.5 726,-94.5 726,-94.5 720,-94.5 714,-88.5 714,-82.5 714,-82.5 714,-12.5 714,-12.5 714,-6.5 720,-0.5 726,-0.5"/>
<text text-anchor="middle" x="792.5" y="-79.3" font-family="Times,serif" font-size="14.00">Users::SessionsController</text>
<polyline fill="none" stroke="black" points="714,-71.5 871,-71.5 "/>
<polyline fill="none" stroke="black" points="714,-47.5 871,-47.5 "/>
<polyline fill="none" stroke="black" points="714,-23.5 871,-23.5 "/>
<text text-anchor="start" x="722" y="-8.3" font-family="Times,serif" font-size="14.00">_layout</text>
</g>
<!-- Users::PasswordsController -->
<g id="node7" class="node"><title>Users::PasswordsController</title>
<path fill="none" stroke="black" d="M12,-0.5C12,-0.5 155,-0.5 155,-0.5 161,-0.5 167,-6.5 167,-12.5 167,-12.5 167,-82.5 167,-82.5 167,-88.5 161,-94.5 155,-94.5 155,-94.5 12,-94.5 12,-94.5 6,-94.5 0,-88.5 0,-82.5 0,-82.5 0,-12.5 0,-12.5 0,-6.5 6,-0.5 12,-0.5"/>
<text text-anchor="middle" x="83.5" y="-79.3" font-family="Times,serif" font-size="14.00">Users::PasswordsController</text>
<polyline fill="none" stroke="black" points="0,-71.5 167,-71.5 "/>
<polyline fill="none" stroke="black" points="0,-47.5 167,-47.5 "/>
<polyline fill="none" stroke="black" points="0,-23.5 167,-23.5 "/>
<text text-anchor="start" x="8" y="-8.3" font-family="Times,serif" font-size="14.00">_layout</text>
</g>
<!-- Users::RegistrationsController -->
<g id="node8" class="node"><title>Users::RegistrationsController</title>
<path fill="none" stroke="black" d="M80,-136.5C80,-136.5 238,-136.5 238,-136.5 244,-136.5 250,-142.5 250,-148.5 250,-148.5 250,-218.5 250,-218.5 250,-224.5 244,-230.5 238,-230.5 238,-230.5 80,-230.5 80,-230.5 74,-230.5 68,-224.5 68,-218.5 68,-218.5 68,-148.5 68,-148.5 68,-142.5 74,-136.5 80,-136.5"/>
<text text-anchor="middle" x="159" y="-215.3" font-family="Times,serif" font-size="14.00">Users::RegistrationsController</text>
<polyline fill="none" stroke="black" points="68,-207.5 250,-207.5 "/>
<polyline fill="none" stroke="black" points="68,-183.5 250,-183.5 "/>
<polyline fill="none" stroke="black" points="68,-159.5 250,-159.5 "/>
<text text-anchor="start" x="76" y="-144.3" font-family="Times,serif" font-size="14.00">_layout</text>
</g>
<!-- Users::OmniauthCallbacksController -->
<g id="node9" class="node"><title>Users::OmniauthCallbacksController</title>
<path fill="none" stroke="black" d="M471,-119.5C471,-119.5 665,-119.5 665,-119.5 671,-119.5 677,-125.5 677,-131.5 677,-131.5 677,-201.5 677,-201.5 677,-207.5 671,-213.5 665,-213.5 665,-213.5 471,-213.5 471,-213.5 465,-213.5 459,-207.5 459,-201.5 459,-201.5 459,-131.5 459,-131.5 459,-125.5 465,-119.5 471,-119.5"/>
<text text-anchor="middle" x="568" y="-198.3" font-family="Times,serif" font-size="14.00">Users::OmniauthCallbacksController</text>
<polyline fill="none" stroke="black" points="459,-190.5 677,-190.5 "/>
<polyline fill="none" stroke="black" points="459,-166.5 677,-166.5 "/>
<polyline fill="none" stroke="black" points="459,-142.5 677,-142.5 "/>
<text text-anchor="start" x="467" y="-127.3" font-family="Times,serif" font-size="14.00">_layout</text>
</g>
<!-- Users::ConfirmationsController -->
<g id="node10" class="node"><title>Users::ConfirmationsController</title>
<path fill="none" stroke="black" d="M80,-442.5C80,-442.5 245,-442.5 245,-442.5 251,-442.5 257,-448.5 257,-454.5 257,-454.5 257,-524.5 257,-524.5 257,-530.5 251,-536.5 245,-536.5 245,-536.5 80,-536.5 80,-536.5 74,-536.5 68,-530.5 68,-524.5 68,-524.5 68,-454.5 68,-454.5 68,-448.5 74,-442.5 80,-442.5"/>
<text text-anchor="middle" x="162.5" y="-521.3" font-family="Times,serif" font-size="14.00">Users::ConfirmationsController</text>
<polyline fill="none" stroke="black" points="68,-513.5 257,-513.5 "/>
<polyline fill="none" stroke="black" points="68,-489.5 257,-489.5 "/>
<polyline fill="none" stroke="black" points="68,-465.5 257,-465.5 "/>
<text text-anchor="start" x="76" y="-450.3" font-family="Times,serif" font-size="14.00">_layout</text>
</g>
<!-- AgendasController -->
<g id="node11" class="node"><title>AgendasController</title>
<path fill="none" stroke="black" d="M369,-544.5C369,-544.5 464,-544.5 464,-544.5 470,-544.5 476,-550.5 476,-556.5 476,-556.5 476,-745.5 476,-745.5 476,-751.5 470,-757.5 464,-757.5 464,-757.5 369,-757.5 369,-757.5 363,-757.5 357,-751.5 357,-745.5 357,-745.5 357,-556.5 357,-556.5 357,-550.5 363,-544.5 369,-544.5"/>
<text text-anchor="middle" x="416.5" y="-742.3" font-family="Times,serif" font-size="14.00">AgendasController</text>
<polyline fill="none" stroke="black" points="357,-734.5 476,-734.5 "/>
<text text-anchor="start" x="365" y="-719.3" font-family="Times,serif" font-size="14.00">create</text>
<text text-anchor="start" x="365" y="-704.3" font-family="Times,serif" font-size="14.00">destroy</text>
<text text-anchor="start" x="365" y="-689.3" font-family="Times,serif" font-size="14.00">edit</text>
<text text-anchor="start" x="365" y="-674.3" font-family="Times,serif" font-size="14.00">new</text>
<text text-anchor="start" x="365" y="-659.3" font-family="Times,serif" font-size="14.00">show</text>
<text text-anchor="start" x="365" y="-644.3" font-family="Times,serif" font-size="14.00">update</text>
<polyline fill="none" stroke="black" points="357,-636.5 476,-636.5 "/>
<polyline fill="none" stroke="black" points="357,-612.5 476,-612.5 "/>
<text text-anchor="start" x="365" y="-597.3" font-family="Times,serif" font-size="14.00">_layout</text>
<text text-anchor="start" x="365" y="-582.3" font-family="Times,serif" font-size="14.00">agenda_params</text>
<text text-anchor="start" x="365" y="-567.3" font-family="Times,serif" font-size="14.00">find_agenda</text>
<text text-anchor="start" x="365" y="-552.3" font-family="Times,serif" font-size="14.00">find_event</text>
</g>
<!-- HotelsController -->
<g id="node12" class="node"><title>HotelsController</title>
<path fill="none" stroke="black" d="M471,-255.5C471,-255.5 554,-255.5 554,-255.5 560,-255.5 566,-261.5 566,-267.5 566,-267.5 566,-471.5 566,-471.5 566,-477.5 560,-483.5 554,-483.5 554,-483.5 471,-483.5 471,-483.5 465,-483.5 459,-477.5 459,-471.5 459,-471.5 459,-267.5 459,-267.5 459,-261.5 465,-255.5 471,-255.5"/>
<text text-anchor="middle" x="512.5" y="-468.3" font-family="Times,serif" font-size="14.00">HotelsController</text>
<polyline fill="none" stroke="black" points="459,-460.5 566,-460.5 "/>
<text text-anchor="start" x="467" y="-445.3" font-family="Times,serif" font-size="14.00">create</text>
<text text-anchor="start" x="467" y="-430.3" font-family="Times,serif" font-size="14.00">destroy</text>
<text text-anchor="start" x="467" y="-415.3" font-family="Times,serif" font-size="14.00">edit</text>
<text text-anchor="start" x="467" y="-400.3" font-family="Times,serif" font-size="14.00">index</text>
<text text-anchor="start" x="467" y="-385.3" font-family="Times,serif" font-size="14.00">new</text>
<text text-anchor="start" x="467" y="-370.3" font-family="Times,serif" font-size="14.00">show</text>
<text text-anchor="start" x="467" y="-355.3" font-family="Times,serif" font-size="14.00">show_followed</text>
<text text-anchor="start" x="467" y="-340.3" font-family="Times,serif" font-size="14.00">update</text>
<polyline fill="none" stroke="black" points="459,-332.5 566,-332.5 "/>
<polyline fill="none" stroke="black" points="459,-308.5 566,-308.5 "/>
<text text-anchor="start" x="467" y="-293.3" font-family="Times,serif" font-size="14.00">_layout</text>
<text text-anchor="start" x="467" y="-278.3" font-family="Times,serif" font-size="14.00">find_hotel</text>
<text text-anchor="start" x="467" y="-263.3" font-family="Times,serif" font-size="14.00">hotel_params</text>
</g>
<!-- StaticPagesController -->
<g id="node13" class="node"><title>StaticPagesController</title>
<path fill="none" stroke="black" d="M301,-85.5C301,-85.5 411,-85.5 411,-85.5 417,-85.5 423,-91.5 423,-97.5 423,-97.5 423,-166.5 423,-166.5 423,-172.5 417,-178.5 411,-178.5 411,-178.5 301,-178.5 301,-178.5 295,-178.5 289,-172.5 289,-166.5 289,-166.5 289,-97.5 289,-97.5 289,-91.5 295,-85.5 301,-85.5"/>
<text text-anchor="middle" x="356" y="-163.3" font-family="Times,serif" font-size="14.00">StaticPagesController</text>
<polyline fill="none" stroke="black" points="289,-155.5 423,-155.5 "/>
<text text-anchor="start" x="297" y="-140.3" font-family="Times,serif" font-size="14.00">index</text>
<polyline fill="none" stroke="black" points="289,-132.5 423,-132.5 "/>
<polyline fill="none" stroke="black" points="289,-108.5 423,-108.5 "/>
<text text-anchor="start" x="297" y="-93.3" font-family="Times,serif" font-size="14.00">_layout</text>
</g>
<!-- MainPagesController -->
<g id="node14" class="node"><title>MainPagesController</title>
<path fill="none" stroke="black" d="M522,-510.5C522,-510.5 631,-510.5 631,-510.5 637,-510.5 643,-516.5 643,-522.5 643,-522.5 643,-711.5 643,-711.5 643,-717.5 637,-723.5 631,-723.5 631,-723.5 522,-723.5 522,-723.5 516,-723.5 510,-717.5 510,-711.5 510,-711.5 510,-522.5 510,-522.5 510,-516.5 516,-510.5 522,-510.5"/>
<text text-anchor="middle" x="576.5" y="-708.3" font-family="Times,serif" font-size="14.00">MainPagesController</text>
<polyline fill="none" stroke="black" points="510,-700.5 643,-700.5 "/>
<text text-anchor="start" x="518" y="-685.3" font-family="Times,serif" font-size="14.00">create</text>
<text text-anchor="start" x="518" y="-670.3" font-family="Times,serif" font-size="14.00">destroy</text>
<text text-anchor="start" x="518" y="-655.3" font-family="Times,serif" font-size="14.00">edit</text>
<text text-anchor="start" x="518" y="-640.3" font-family="Times,serif" font-size="14.00">new</text>
<text text-anchor="start" x="518" y="-625.3" font-family="Times,serif" font-size="14.00">show</text>
<text text-anchor="start" x="518" y="-610.3" font-family="Times,serif" font-size="14.00">update</text>
<polyline fill="none" stroke="black" points="510,-602.5 643,-602.5 "/>
<polyline fill="none" stroke="black" points="510,-578.5 643,-578.5 "/>
<text text-anchor="start" x="518" y="-563.3" font-family="Times,serif" font-size="14.00">_layout</text>
<text text-anchor="start" x="518" y="-548.3" font-family="Times,serif" font-size="14.00">find_event</text>
<text text-anchor="start" x="518" y="-533.3" font-family="Times,serif" font-size="14.00">find_page</text>
<text text-anchor="start" x="518" y="-518.3" font-family="Times,serif" font-size="14.00">main_page_params</text>
</g>
<!-- PendingContributorsController -->
<g id="node15" class="node"><title>PendingContributorsController</title>
<path fill="none" stroke="black" d="M148,-578.5C148,-578.5 309,-578.5 309,-578.5 315,-578.5 321,-584.5 321,-590.5 321,-590.5 321,-719.5 321,-719.5 321,-725.5 315,-731.5 309,-731.5 309,-731.5 148,-731.5 148,-731.5 142,-731.5 136,-725.5 136,-719.5 136,-719.5 136,-590.5 136,-590.5 136,-584.5 142,-578.5 148,-578.5"/>
<text text-anchor="middle" x="228.5" y="-716.3" font-family="Times,serif" font-size="14.00">PendingContributorsController</text>
<polyline fill="none" stroke="black" points="136,-708.5 321,-708.5 "/>
<text text-anchor="start" x="144" y="-693.3" font-family="Times,serif" font-size="14.00">accept</text>
<text text-anchor="start" x="144" y="-678.3" font-family="Times,serif" font-size="14.00">create</text>
<text text-anchor="start" x="144" y="-663.3" font-family="Times,serif" font-size="14.00">destroy</text>
<polyline fill="none" stroke="black" points="136,-655.5 321,-655.5 "/>
<polyline fill="none" stroke="black" points="136,-631.5 321,-631.5 "/>
<text text-anchor="start" x="144" y="-616.3" font-family="Times,serif" font-size="14.00">_layout</text>
<text text-anchor="start" x="144" y="-601.3" font-family="Times,serif" font-size="14.00">find_event</text>
<text text-anchor="start" x="144" y="-586.3" font-family="Times,serif" font-size="14.00">pending_contributor_params</text>
</g>
<!-- HotelPicturesController -->
<g id="node16" class="node"><title>HotelPicturesController</title>
<path fill="none" stroke="black" d="M114,-272.5C114,-272.5 236,-272.5 236,-272.5 242,-272.5 248,-278.5 248,-284.5 248,-284.5 248,-398.5 248,-398.5 248,-404.5 242,-410.5 236,-410.5 236,-410.5 114,-410.5 114,-410.5 108,-410.5 102,-404.5 102,-398.5 102,-398.5 102,-284.5 102,-284.5 102,-278.5 108,-272.5 114,-272.5"/>
<text text-anchor="middle" x="175" y="-395.3" font-family="Times,serif" font-size="14.00">HotelPicturesController</text>
<polyline fill="none" stroke="black" points="102,-387.5 248,-387.5 "/>
<text text-anchor="start" x="110" y="-372.3" font-family="Times,serif" font-size="14.00">create</text>
<text text-anchor="start" x="110" y="-357.3" font-family="Times,serif" font-size="14.00">destroy</text>
<polyline fill="none" stroke="black" points="102,-349.5 248,-349.5 "/>
<polyline fill="none" stroke="black" points="102,-325.5 248,-325.5 "/>
<text text-anchor="start" x="110" y="-310.3" font-family="Times,serif" font-size="14.00">_layout</text>
<text text-anchor="start" x="110" y="-295.3" font-family="Times,serif" font-size="14.00">find_hotel</text>
<text text-anchor="start" x="110" y="-280.3" font-family="Times,serif" font-size="14.00">hotel_picture_params</text>
</g>
<!-- EventsController -->
<g id="node17" class="node"><title>EventsController</title>
<path fill="none" stroke="black" d="M301,-204.5C301,-204.5 414,-204.5 414,-204.5 420,-204.5 426,-210.5 426,-216.5 426,-216.5 426,-495.5 426,-495.5 426,-501.5 420,-507.5 414,-507.5 414,-507.5 301,-507.5 301,-507.5 295,-507.5 289,-501.5 289,-495.5 289,-495.5 289,-216.5 289,-216.5 289,-210.5 295,-204.5 301,-204.5"/>
<text text-anchor="middle" x="357.5" y="-492.3" font-family="Times,serif" font-size="14.00">EventsController</text>
<polyline fill="none" stroke="black" points="289,-484.5 426,-484.5 "/>
<text text-anchor="start" x="297" y="-469.3" font-family="Times,serif" font-size="14.00">add_hotel</text>
<text text-anchor="start" x="297" y="-454.3" font-family="Times,serif" font-size="14.00">category</text>
<text text-anchor="start" x="297" y="-439.3" font-family="Times,serif" font-size="14.00">choose_hotels_to_add</text>
<text text-anchor="start" x="297" y="-424.3" font-family="Times,serif" font-size="14.00">create</text>
<text text-anchor="start" x="297" y="-409.3" font-family="Times,serif" font-size="14.00">destroy</text>
<text text-anchor="start" x="297" y="-394.3" font-family="Times,serif" font-size="14.00">edit</text>
<text text-anchor="start" x="297" y="-379.3" font-family="Times,serif" font-size="14.00">index</text>
<text text-anchor="start" x="297" y="-364.3" font-family="Times,serif" font-size="14.00">new</text>
<text text-anchor="start" x="297" y="-349.3" font-family="Times,serif" font-size="14.00">search</text>
<text text-anchor="start" x="297" y="-334.3" font-family="Times,serif" font-size="14.00">show</text>
<text text-anchor="start" x="297" y="-319.3" font-family="Times,serif" font-size="14.00">show_events_hotels</text>
<text text-anchor="start" x="297" y="-304.3" font-family="Times,serif" font-size="14.00">show_followed</text>
<text text-anchor="start" x="297" y="-289.3" font-family="Times,serif" font-size="14.00">update</text>
<polyline fill="none" stroke="black" points="289,-281.5 426,-281.5 "/>
<polyline fill="none" stroke="black" points="289,-257.5 426,-257.5 "/>
<text text-anchor="start" x="297" y="-242.3" font-family="Times,serif" font-size="14.00">_layout</text>
<text text-anchor="start" x="297" y="-227.3" font-family="Times,serif" font-size="14.00">event_params</text>
<text text-anchor="start" x="297" y="-212.3" font-family="Times,serif" font-size="14.00">find_event</text>
</g>
</g>
</svg>
