<?xml version="1.0" encoding="UTF-8" standalone="no"?>
<!DOCTYPE svg PUBLIC "-//W3C//DTD SVG 1.1//EN"
 "http://www.w3.org/Graphics/SVG/1.1/DTD/svg11.dtd">
<!-- Generated by graphviz version 2.36.0 (20140111.2315)
 -->
<!-- Title: models_diagram Pages: 1 -->
<svg width="1146pt" height="1176pt"
 viewBox="0.00 0.00 1146.00 1176.00" xmlns="http://www.w3.org/2000/svg" xmlns:xlink="http://www.w3.org/1999/xlink">
<g id="graph0" class="graph" transform="scale(1 1) rotate(0) translate(4 1172)">
<title>models_diagram</title>
<polygon fill="none" stroke="none" points="-4,4 -4,-1172 1142,-1172 1142,4 -4,4"/>
<!-- _diagram_info -->
<g id="node1" class="node"><title>_diagram_info</title>
<text text-anchor="start" x="126" y="-1011.6" font-family="Times,serif" font-size="13.00">Models diagram</text>
<text text-anchor="start" x="126" y="-997.6" font-family="Times,serif" font-size="13.00">Date: Mar 24 2016 &#45; 17:15</text>
<text text-anchor="start" x="126" y="-983.6" font-family="Times,serif" font-size="13.00">Migration version: 20160206152023</text>
<text text-anchor="start" x="126" y="-969.6" font-family="Times,serif" font-size="13.00">Generated by RailRoady 1.4.2</text>
<text text-anchor="start" x="126" y="-955.6" font-family="Times,serif" font-size="13.00">http://railroady.prestonlee.com</text>
</g>
<!-- MainPage -->
<g id="node2" class="node"><title>MainPage</title>
<path fill="none" stroke="black" d="M580,-1C580,-1 864,-1 864,-1 870,-1 876,-7 876,-13 876,-13 876,-185 876,-185 876,-191 870,-197 864,-197 864,-197 580,-197 580,-197 574,-197 568,-191 568,-185 568,-185 568,-13 568,-13 568,-7 574,-1 580,-1"/>
<text text-anchor="middle" x="722" y="-181.8" font-family="Times,serif" font-size="14.00">MainPage</text>
<polyline fill="none" stroke="black" points="568,-174 876,-174 "/>
<text text-anchor="start" x="576" y="-158.8" font-family="Times,serif" font-size="14.00">id :integer</text>
<text text-anchor="start" x="576" y="-143.8" font-family="Times,serif" font-size="14.00">title :character varying</text>
<text text-anchor="start" x="576" y="-128.8" font-family="Times,serif" font-size="14.00">header :text</text>
<text text-anchor="start" x="576" y="-113.8" font-family="Times,serif" font-size="14.00">content :text</text>
<text text-anchor="start" x="576" y="-98.8" font-family="Times,serif" font-size="14.00">created_at :timestamp without time zone</text>
<text text-anchor="start" x="576" y="-83.8" font-family="Times,serif" font-size="14.00">updated_at :timestamp without time zone</text>
<text text-anchor="start" x="576" y="-68.8" font-family="Times,serif" font-size="14.00">event_id :integer</text>
<text text-anchor="start" x="576" y="-53.8" font-family="Times,serif" font-size="14.00">jumbotron_file_name :character varying</text>
<text text-anchor="start" x="576" y="-38.8" font-family="Times,serif" font-size="14.00">jumbotron_content_type :character varying</text>
<text text-anchor="start" x="576" y="-23.8" font-family="Times,serif" font-size="14.00">jumbotron_file_size :integer</text>
<text text-anchor="start" x="576" y="-8.8" font-family="Times,serif" font-size="14.00">jumbotron_updated_at :timestamp without time zone</text>
</g>
<!-- PendingContributor -->
<g id="node3" class="node"><title>PendingContributor</title>
<path fill="none" stroke="black" d="M906,-38.5C906,-38.5 1126,-38.5 1126,-38.5 1132,-38.5 1138,-44.5 1138,-50.5 1138,-50.5 1138,-147.5 1138,-147.5 1138,-153.5 1132,-159.5 1126,-159.5 1126,-159.5 906,-159.5 906,-159.5 900,-159.5 894,-153.5 894,-147.5 894,-147.5 894,-50.5 894,-50.5 894,-44.5 900,-38.5 906,-38.5"/>
<text text-anchor="middle" x="1016" y="-144.3" font-family="Times,serif" font-size="14.00">PendingContributor</text>
<polyline fill="none" stroke="black" points="894,-136.5 1138,-136.5 "/>
<text text-anchor="start" x="902" y="-121.3" font-family="Times,serif" font-size="14.00">id :integer</text>
<text text-anchor="start" x="902" y="-106.3" font-family="Times,serif" font-size="14.00">event_id :integer</text>
<text text-anchor="start" x="902" y="-91.3" font-family="Times,serif" font-size="14.00">user_id :integer</text>
<text text-anchor="start" x="902" y="-76.3" font-family="Times,serif" font-size="14.00">role :character varying</text>
<text text-anchor="start" x="902" y="-61.3" font-family="Times,serif" font-size="14.00">created_at :timestamp without time zone</text>
<text text-anchor="start" x="902" y="-46.3" font-family="Times,serif" font-size="14.00">updated_at :timestamp without time zone</text>
</g>
<!-- HotelPicture -->
<g id="node4" class="node"><title>HotelPicture</title>
<path fill="none" stroke="black" d="M255,-272.5C255,-272.5 519,-272.5 519,-272.5 525,-272.5 531,-278.5 531,-284.5 531,-284.5 531,-411.5 531,-411.5 531,-417.5 525,-423.5 519,-423.5 519,-423.5 255,-423.5 255,-423.5 249,-423.5 243,-417.5 243,-411.5 243,-411.5 243,-284.5 243,-284.5 243,-278.5 249,-272.5 255,-272.5"/>
<text text-anchor="middle" x="387" y="-408.3" font-family="Times,serif" font-size="14.00">HotelPicture</text>
<polyline fill="none" stroke="black" points="243,-400.5 531,-400.5 "/>
<text text-anchor="start" x="251" y="-385.3" font-family="Times,serif" font-size="14.00">id :integer</text>
<text text-anchor="start" x="251" y="-370.3" font-family="Times,serif" font-size="14.00">hotel_id :integer</text>
<text text-anchor="start" x="251" y="-355.3" font-family="Times,serif" font-size="14.00">picture_file_name :character varying</text>
<text text-anchor="start" x="251" y="-340.3" font-family="Times,serif" font-size="14.00">picture_content_type :character varying</text>
<text text-anchor="start" x="251" y="-325.3" font-family="Times,serif" font-size="14.00">picture_file_size :integer</text>
<text text-anchor="start" x="251" y="-310.3" font-family="Times,serif" font-size="14.00">picture_updated_at :timestamp without time zone</text>
<text text-anchor="start" x="251" y="-295.3" font-family="Times,serif" font-size="14.00">created_at :timestamp without time zone</text>
<text text-anchor="start" x="251" y="-280.3" font-family="Times,serif" font-size="14.00">updated_at :timestamp without time zone</text>
</g>
<!-- Agenda -->
<g id="node5" class="node"><title>Agenda</title>
<path fill="none" stroke="black" d="M274,-16C274,-16 538,-16 538,-16 544,-16 550,-22 550,-28 550,-28 550,-170 550,-170 550,-176 544,-182 538,-182 538,-182 274,-182 274,-182 268,-182 262,-176 262,-170 262,-170 262,-28 262,-28 262,-22 268,-16 274,-16"/>
<text text-anchor="middle" x="406" y="-166.8" font-family="Times,serif" font-size="14.00">Agenda</text>
<polyline fill="none" stroke="black" points="262,-159 550,-159 "/>
<text text-anchor="start" x="270" y="-143.8" font-family="Times,serif" font-size="14.00">id :integer</text>
<text text-anchor="start" x="270" y="-128.8" font-family="Times,serif" font-size="14.00">event_id :integer</text>
<text text-anchor="start" x="270" y="-113.8" font-family="Times,serif" font-size="14.00">content :text</text>
<text text-anchor="start" x="270" y="-98.8" font-family="Times,serif" font-size="14.00">picture_file_name :character varying</text>
<text text-anchor="start" x="270" y="-83.8" font-family="Times,serif" font-size="14.00">picture_content_type :character varying</text>
<text text-anchor="start" x="270" y="-68.8" font-family="Times,serif" font-size="14.00">picture_file_size :integer</text>
<text text-anchor="start" x="270" y="-53.8" font-family="Times,serif" font-size="14.00">picture_updated_at :timestamp without time zone</text>
<text text-anchor="start" x="270" y="-38.8" font-family="Times,serif" font-size="14.00">created_at :timestamp without time zone</text>
<text text-anchor="start" x="270" y="-23.8" font-family="Times,serif" font-size="14.00">updated_at :timestamp without time zone</text>
</g>
<!-- Ability -->
<g id="node6" class="node"><title>Ability</title>
<polygon fill="none" stroke="black" points="681.5,-964 681.5,-1010 736.5,-1010 736.5,-964 681.5,-964"/>
<text text-anchor="middle" x="709" y="-994.8" font-family="Times,serif" font-size="14.00">Ability</text>
<polyline fill="none" stroke="black" points="681.5,-987 736.5,-987 "/>
<text text-anchor="middle" x="709" y="-971.8" font-family="Times,serif" font-size="14.00"> </text>
</g>
<!-- EventUser -->
<g id="node7" class="node"><title>EventUser</title>
<path fill="none" stroke="black" d="M12,-38.5C12,-38.5 232,-38.5 232,-38.5 238,-38.5 244,-44.5 244,-50.5 244,-50.5 244,-147.5 244,-147.5 244,-153.5 238,-159.5 232,-159.5 232,-159.5 12,-159.5 12,-159.5 6,-159.5 0,-153.5 0,-147.5 0,-147.5 0,-50.5 0,-50.5 0,-44.5 6,-38.5 12,-38.5"/>
<text text-anchor="middle" x="122" y="-144.3" font-family="Times,serif" font-size="14.00">EventUser</text>
<polyline fill="none" stroke="black" points="0,-136.5 244,-136.5 "/>
<text text-anchor="start" x="8" y="-121.3" font-family="Times,serif" font-size="14.00">id :integer</text>
<text text-anchor="start" x="8" y="-106.3" font-family="Times,serif" font-size="14.00">user_id :integer</text>
<text text-anchor="start" x="8" y="-91.3" font-family="Times,serif" font-size="14.00">event_id :integer</text>
<text text-anchor="start" x="8" y="-76.3" font-family="Times,serif" font-size="14.00">role :character varying</text>
<text text-anchor="start" x="8" y="-61.3" font-family="Times,serif" font-size="14.00">created_at :timestamp without time zone</text>
<text text-anchor="start" x="8" y="-46.3" font-family="Times,serif" font-size="14.00">updated_at :timestamp without time zone</text>
</g>
<!-- Hotel -->
<g id="node8" class="node"><title>Hotel</title>
<path fill="none" stroke="black" d="M289,-498.5C289,-498.5 553,-498.5 553,-498.5 559,-498.5 565,-504.5 565,-510.5 565,-510.5 565,-757.5 565,-757.5 565,-763.5 559,-769.5 553,-769.5 553,-769.5 289,-769.5 289,-769.5 283,-769.5 277,-763.5 277,-757.5 277,-757.5 277,-510.5 277,-510.5 277,-504.5 283,-498.5 289,-498.5"/>
<text text-anchor="middle" x="421" y="-754.3" font-family="Times,serif" font-size="14.00">Hotel</text>
<polyline fill="none" stroke="black" points="277,-746.5 565,-746.5 "/>
<text text-anchor="start" x="285" y="-731.3" font-family="Times,serif" font-size="14.00">id :integer</text>
<text text-anchor="start" x="285" y="-716.3" font-family="Times,serif" font-size="14.00">name :character varying</text>
<text text-anchor="start" x="285" y="-701.3" font-family="Times,serif" font-size="14.00">city :character varying</text>
<text text-anchor="start" x="285" y="-686.3" font-family="Times,serif" font-size="14.00">address :character varying</text>
<text text-anchor="start" x="285" y="-671.3" font-family="Times,serif" font-size="14.00">description :text</text>
<text text-anchor="start" x="285" y="-656.3" font-family="Times,serif" font-size="14.00">link :character varying</text>
<text text-anchor="start" x="285" y="-641.3" font-family="Times,serif" font-size="14.00">standard :integer</text>
<text text-anchor="start" x="285" y="-626.3" font-family="Times,serif" font-size="14.00">phone :character varying</text>
<text text-anchor="start" x="285" y="-611.3" font-family="Times,serif" font-size="14.00">email :character varying</text>
<text text-anchor="start" x="285" y="-596.3" font-family="Times,serif" font-size="14.00">picture_file_name :character varying</text>
<text text-anchor="start" x="285" y="-581.3" font-family="Times,serif" font-size="14.00">picture_content_type :character varying</text>
<text text-anchor="start" x="285" y="-566.3" font-family="Times,serif" font-size="14.00">picture_file_size :integer</text>
<text text-anchor="start" x="285" y="-551.3" font-family="Times,serif" font-size="14.00">picture_updated_at :timestamp without time zone</text>
<text text-anchor="start" x="285" y="-536.3" font-family="Times,serif" font-size="14.00">created_at :timestamp without time zone</text>
<text text-anchor="start" x="285" y="-521.3" font-family="Times,serif" font-size="14.00">updated_at :timestamp without time zone</text>
<text text-anchor="start" x="285" y="-506.3" font-family="Times,serif" font-size="14.00">user_id :integer</text>
</g>
<!-- Hotel&#45;&gt;HotelPicture -->
<g id="edge2" class="edge"><title>Hotel&#45;&gt;HotelPicture</title>
<path fill="none" stroke="#aeed65" d="M403.923,-490.358C401.623,-471.144 399.325,-451.946 397.197,-434.171"/>
<ellipse fill="none" stroke="#aeed65" cx="404.421" cy="-494.514" rx="4.00001" ry="4.00001"/>
<polygon fill="#aeed65" stroke="#aeed65" points="397.153,-433.809 400.433,-423.345 396.559,-428.845 395.965,-423.88 395.965,-423.88 395.965,-423.88 396.559,-428.845 391.496,-424.415 397.153,-433.809 397.153,-433.809"/>
</g>
<!-- Event -->
<g id="node11" class="node"><title>Event</title>
<path fill="none" stroke="black" d="M561,-235C561,-235 821,-235 821,-235 827,-235 833,-241 833,-247 833,-247 833,-449 833,-449 833,-455 827,-461 821,-461 821,-461 561,-461 561,-461 555,-461 549,-455 549,-449 549,-449 549,-247 549,-247 549,-241 555,-235 561,-235"/>
<text text-anchor="middle" x="691" y="-445.8" font-family="Times,serif" font-size="14.00">Event</text>
<polyline fill="none" stroke="black" points="549,-438 833,-438 "/>
<text text-anchor="start" x="557" y="-422.8" font-family="Times,serif" font-size="14.00">id :integer</text>
<text text-anchor="start" x="557" y="-407.8" font-family="Times,serif" font-size="14.00">name :character varying</text>
<text text-anchor="start" x="557" y="-392.8" font-family="Times,serif" font-size="14.00">place :character varying</text>
<text text-anchor="start" x="557" y="-377.8" font-family="Times,serif" font-size="14.00">date :date</text>
<text text-anchor="start" x="557" y="-362.8" font-family="Times,serif" font-size="14.00">time :time without time zone</text>
<text text-anchor="start" x="557" y="-347.8" font-family="Times,serif" font-size="14.00">created_at :timestamp without time zone</text>
<text text-anchor="start" x="557" y="-332.8" font-family="Times,serif" font-size="14.00">updated_at :timestamp without time zone</text>
<text text-anchor="start" x="557" y="-317.8" font-family="Times,serif" font-size="14.00">description :text</text>
<text text-anchor="start" x="557" y="-302.8" font-family="Times,serif" font-size="14.00">avatar_file_name :character varying</text>
<text text-anchor="start" x="557" y="-287.8" font-family="Times,serif" font-size="14.00">avatar_content_type :character varying</text>
<text text-anchor="start" x="557" y="-272.8" font-family="Times,serif" font-size="14.00">avatar_file_size :integer</text>
<text text-anchor="start" x="557" y="-257.8" font-family="Times,serif" font-size="14.00">avatar_updated_at :timestamp without time zone</text>
<text text-anchor="start" x="557" y="-242.8" font-family="Times,serif" font-size="14.00">category :character varying</text>
</g>
<!-- Hotel&#45;&gt;Event -->
<g id="edge1" class="edge"><title>Hotel&#45;&gt;Event</title>
<path fill="none" stroke="#96cb69" d="M555.838,-491.171C563.003,-483.634 570.169,-476.096 577.255,-468.643"/>
<polygon fill="#96cb69" stroke="#96cb69" points="555.774,-491.238 545.622,-495.385 552.329,-494.861 548.884,-498.485 548.884,-498.485 548.884,-498.485 552.329,-494.861 552.145,-501.586 555.774,-491.238 555.774,-491.238"/>
<polygon fill="#96cb69" stroke="#96cb69" points="577.421,-468.468 587.573,-464.321 580.866,-464.844 584.312,-461.22 584.312,-461.22 584.312,-461.22 580.866,-464.844 581.05,-458.12 577.421,-468.468 577.421,-468.468"/>
</g>
<!-- Guest -->
<g id="node9" class="node"><title>Guest</title>
<path fill="none" stroke="black" d="M633,-573.5C633,-573.5 853,-573.5 853,-573.5 859,-573.5 865,-579.5 865,-585.5 865,-585.5 865,-682.5 865,-682.5 865,-688.5 859,-694.5 853,-694.5 853,-694.5 633,-694.5 633,-694.5 627,-694.5 621,-688.5 621,-682.5 621,-682.5 621,-585.5 621,-585.5 621,-579.5 627,-573.5 633,-573.5"/>
<text text-anchor="middle" x="743" y="-679.3" font-family="Times,serif" font-size="14.00">Guest</text>
<polyline fill="none" stroke="black" points="621,-671.5 865,-671.5 "/>
<text text-anchor="start" x="629" y="-656.3" font-family="Times,serif" font-size="14.00">id :integer</text>
<text text-anchor="start" x="629" y="-641.3" font-family="Times,serif" font-size="14.00">email :character varying</text>
<text text-anchor="start" x="629" y="-626.3" font-family="Times,serif" font-size="14.00">name :character varying</text>
<text text-anchor="start" x="629" y="-611.3" font-family="Times,serif" font-size="14.00">surname :character varying</text>
<text text-anchor="start" x="629" y="-596.3" font-family="Times,serif" font-size="14.00">created_at :timestamp without time zone</text>
<text text-anchor="start" x="629" y="-581.3" font-family="Times,serif" font-size="14.00">updated_at :timestamp without time zone</text>
</g>
<!-- Guest&#45;&gt;Event -->
<g id="edge3" class="edge"><title>Guest&#45;&gt;Event</title>
<path fill="none" stroke="#19c820" d="M730.237,-563.292C725.16,-535.563 719.164,-502.82 713.408,-471.384"/>
<polygon fill="#19c820" stroke="#19c820" points="730.298,-563.628 727.673,-574.275 731.199,-568.546 732.099,-573.464 732.099,-573.464 732.099,-573.464 731.199,-568.546 736.526,-572.654 730.298,-563.628 730.298,-563.628"/>
<polygon fill="#19c820" stroke="#19c820" points="713.351,-471.068 715.976,-460.421 712.45,-466.15 711.549,-461.232 711.549,-461.232 711.549,-461.232 712.45,-466.15 707.123,-462.042 713.351,-471.068 713.351,-471.068"/>
</g>
<!-- User -->
<g id="node10" class="node"><title>User</title>
<path fill="none" stroke="black" d="M362.5,-806.5C362.5,-806.5 651.5,-806.5 651.5,-806.5 657.5,-806.5 663.5,-812.5 663.5,-818.5 663.5,-818.5 663.5,-1155.5 663.5,-1155.5 663.5,-1161.5 657.5,-1167.5 651.5,-1167.5 651.5,-1167.5 362.5,-1167.5 362.5,-1167.5 356.5,-1167.5 350.5,-1161.5 350.5,-1155.5 350.5,-1155.5 350.5,-818.5 350.5,-818.5 350.5,-812.5 356.5,-806.5 362.5,-806.5"/>
<text text-anchor="middle" x="507" y="-1152.3" font-family="Times,serif" font-size="14.00">User</text>
<polyline fill="none" stroke="black" points="350.5,-1144.5 663.5,-1144.5 "/>
<text text-anchor="start" x="358.5" y="-1129.3" font-family="Times,serif" font-size="14.00">id :integer</text>
<text text-anchor="start" x="358.5" y="-1114.3" font-family="Times,serif" font-size="14.00">user_name :character varying</text>
<text text-anchor="start" x="358.5" y="-1099.3" font-family="Times,serif" font-size="14.00">role :character varying</text>
<text text-anchor="start" x="358.5" y="-1084.3" font-family="Times,serif" font-size="14.00">name :character varying</text>
<text text-anchor="start" x="358.5" y="-1069.3" font-family="Times,serif" font-size="14.00">surname :character varying</text>
<text text-anchor="start" x="358.5" y="-1054.3" font-family="Times,serif" font-size="14.00">company_name :character varying</text>
<text text-anchor="start" x="358.5" y="-1039.3" font-family="Times,serif" font-size="14.00">created_at :timestamp without time zone</text>
<text text-anchor="start" x="358.5" y="-1024.3" font-family="Times,serif" font-size="14.00">updated_at :timestamp without time zone</text>
<text text-anchor="start" x="358.5" y="-1009.3" font-family="Times,serif" font-size="14.00">email :character varying</text>
<text text-anchor="start" x="358.5" y="-994.3" font-family="Times,serif" font-size="14.00">encrypted_password :character varying</text>
<text text-anchor="start" x="358.5" y="-979.3" font-family="Times,serif" font-size="14.00">reset_password_token :character varying</text>
<text text-anchor="start" x="358.5" y="-964.3" font-family="Times,serif" font-size="14.00">reset_password_sent_at :timestamp without time zone</text>
<text text-anchor="start" x="358.5" y="-949.3" font-family="Times,serif" font-size="14.00">remember_created_at :timestamp without time zone</text>
<text text-anchor="start" x="358.5" y="-934.3" font-family="Times,serif" font-size="14.00">sign_in_count :integer</text>
<text text-anchor="start" x="358.5" y="-919.3" font-family="Times,serif" font-size="14.00">current_sign_in_at :timestamp without time zone</text>
<text text-anchor="start" x="358.5" y="-904.3" font-family="Times,serif" font-size="14.00">last_sign_in_at :timestamp without time zone</text>
<text text-anchor="start" x="358.5" y="-889.3" font-family="Times,serif" font-size="14.00">current_sign_in_ip :inet</text>
<text text-anchor="start" x="358.5" y="-874.3" font-family="Times,serif" font-size="14.00">last_sign_in_ip :inet</text>
<text text-anchor="start" x="358.5" y="-859.3" font-family="Times,serif" font-size="14.00">confirmation_token :character varying</text>
<text text-anchor="start" x="358.5" y="-844.3" font-family="Times,serif" font-size="14.00">confirmed_at :timestamp without time zone</text>
<text text-anchor="start" x="358.5" y="-829.3" font-family="Times,serif" font-size="14.00">confirmation_sent_at :timestamp without time zone</text>
<text text-anchor="start" x="358.5" y="-814.3" font-family="Times,serif" font-size="14.00">unconfirmed_email :character varying</text>
</g>
<!-- User&#45;&gt;PendingContributor -->
<g id="edge7" class="edge"><title>User&#45;&gt;PendingContributor</title>
<path fill="none" stroke="#54f377" d="M670.629,-807.318C671.418,-806.874 672.208,-806.434 673,-806 752.578,-762.368 808.82,-833.151 874,-770 1039.83,-609.332 1035.79,-306.891 1024.16,-170.213"/>
<ellipse fill="none" stroke="#54f377" cx="667.029" cy="-809.43" rx="4.00002" ry="4.00002"/>
<polygon fill="#54f377" stroke="#54f377" points="1024.13,-169.834 1027.73,-159.475 1023.69,-164.854 1023.24,-159.874 1023.24,-159.874 1023.24,-159.874 1023.69,-164.854 1018.76,-160.273 1024.13,-169.834 1024.13,-169.834"/>
</g>
<!-- User&#45;&gt;EventUser -->
<g id="edge4" class="edge"><title>User&#45;&gt;EventUser</title>
<path fill="none" stroke="#75891d" d="M343.928,-808.981C342.62,-807.977 341.311,-806.983 340,-806 311.373,-784.541 289.96,-798.245 268,-770 127.49,-589.273 115.69,-302.025 118.52,-170.25"/>
<ellipse fill="none" stroke="#75891d" cx="347.298" cy="-811.621" rx="4.00002" ry="4.00002"/>
<polygon fill="#75891d" stroke="#75891d" points="118.529,-169.889 123.278,-160.005 118.654,-164.89 118.779,-159.892 118.779,-159.892 118.779,-159.892 118.654,-164.89 114.281,-159.779 118.529,-169.889 118.529,-169.889"/>
</g>
<!-- User&#45;&gt;Hotel -->
<g id="edge6" class="edge"><title>User&#45;&gt;Hotel</title>
<path fill="none" stroke="#a81a84" d="M461.085,-798.601C459.525,-792.237 457.971,-785.894 456.43,-779.605"/>
<ellipse fill="none" stroke="#a81a84" cx="462.04" cy="-802.502" rx="4.00001" ry="4.00001"/>
<polygon fill="#a81a84" stroke="#a81a84" points="456.401,-779.485 458.392,-768.702 455.211,-774.629 454.021,-769.772 454.021,-769.772 454.021,-769.772 455.211,-774.629 449.65,-770.843 456.401,-779.485 456.401,-779.485"/>
</g>
<!-- User&#45;&gt;Event -->
<g id="edge5" class="edge"><title>User&#45;&gt;Event</title>
<path fill="none" stroke="#3ebe02" d="M567.652,-796.543C569.919,-787.603 572.051,-778.723 574,-770 600.613,-650.874 574.396,-614.126 612,-498 614.977,-488.808 618.498,-479.51 622.376,-470.285"/>
<polygon fill="#3ebe02" stroke="#3ebe02" points="567.642,-796.581 560.784,-805.137 566.392,-801.422 565.141,-806.263 565.141,-806.263 565.141,-806.263 566.392,-801.422 569.498,-807.388 567.642,-796.581 567.642,-796.581"/>
<polygon fill="#3ebe02" stroke="#3ebe02" points="622.384,-470.266 630.492,-462.884 624.374,-465.679 626.364,-461.093 626.364,-461.093 626.364,-461.093 624.374,-465.679 622.236,-459.301 622.384,-470.266 622.384,-470.266"/>
</g>
<!-- Event&#45;&gt;MainPage -->
<g id="edge9" class="edge"><title>Event&#45;&gt;MainPage</title>
<path fill="none" stroke="#2d4c3d" d="M706.125,-226.49C707.008,-219.453 707.893,-212.403 708.768,-205.432"/>
<ellipse fill="none" stroke="#2d4c3d" cx="705.592" cy="-230.734" rx="4.00001" ry="4.00001"/>
<ellipse fill="#2d4c3d" stroke="#2d4c3d" cx="709.291" cy="-201.259" rx="4.00001" ry="4.00001"/>
</g>
<!-- Event&#45;&gt;PendingContributor -->
<g id="edge11" class="edge"><title>Event&#45;&gt;PendingContributor</title>
<path fill="none" stroke="#3e18a8" d="M839.816,-233.899C870.543,-210.548 901.926,-186.696 929.53,-165.717"/>
<ellipse fill="none" stroke="#3e18a8" cx="836.262" cy="-236.601" rx="4.00002" ry="4.00002"/>
<polygon fill="#3e18a8" stroke="#3e18a8" points="929.629,-165.642 940.313,-163.174 933.61,-162.617 937.59,-159.591 937.59,-159.591 937.59,-159.591 933.61,-162.617 934.868,-156.009 929.629,-165.642 929.629,-165.642"/>
</g>
<!-- Event&#45;&gt;Agenda -->
<g id="edge10" class="edge"><title>Event&#45;&gt;Agenda</title>
<path fill="none" stroke="#d122a5" d="M555.189,-229.297C538.934,-215.21 522.563,-201.021 506.923,-187.467"/>
<ellipse fill="none" stroke="#d122a5" cx="558.403" cy="-232.083" rx="4.00002" ry="4.00002"/>
<ellipse fill="#d122a5" stroke="#d122a5" cx="503.759" cy="-184.724" rx="4.00002" ry="4.00002"/>
</g>
<!-- Event&#45;&gt;EventUser -->
<g id="edge8" class="edge"><title>Event&#45;&gt;EventUser</title>
<path fill="none" stroke="#c38747" d="M541.081,-234.44C540.721,-234.292 540.361,-234.146 540,-234 420.788,-185.885 372.215,-246.105 253,-198 233.307,-190.054 213.944,-178.39 196.396,-165.858"/>
<ellipse fill="none" stroke="#c38747" cx="544.958" cy="-236.11" rx="4.00002" ry="4.00002"/>
<polygon fill="#c38747" stroke="#c38747" points="195.997,-165.565 190.597,-156.021 191.966,-162.607 187.935,-159.649 187.935,-159.649 187.935,-159.649 191.966,-162.607 185.272,-163.277 195.997,-165.565 195.997,-165.565"/>
</g>
</g>
</svg>
