<?xml version="1.0" encoding="UTF-8" standalone="no"?>
<!DOCTYPE svg PUBLIC "-//W3C//DTD SVG 1.1//EN"
 "http://www.w3.org/Graphics/SVG/1.1/DTD/svg11.dtd">
<!-- Generated by graphviz version 2.36.0 (20140111.2315)
 -->
<!-- Title: models_diagram Pages: 1 -->
<svg width="556pt" height="302pt"
 viewBox="0.00 0.00 556.00 302.00" xmlns="http://www.w3.org/2000/svg" xmlns:xlink="http://www.w3.org/1999/xlink">
<g id="graph0" class="graph" transform="scale(1 1) rotate(0) translate(4 298)">
<title>models_diagram</title>
<polygon fill="none" stroke="none" points="-4,4 -4,-298 552,-298 552,4 -4,4"/>
<!-- _diagram_info -->
<g id="node1" class="node"><title>_diagram_info</title>
<text text-anchor="start" x="8" y="-279.6" font-family="Times,serif" font-size="13.00">Models diagram</text>
<text text-anchor="start" x="8" y="-265.6" font-family="Times,serif" font-size="13.00">Date: Mar 24 2016 &#45; 17:15</text>
<text text-anchor="start" x="8" y="-251.6" font-family="Times,serif" font-size="13.00">Migration version: 20160206152023</text>
<text text-anchor="start" x="8" y="-237.6" font-family="Times,serif" font-size="13.00">Generated by RailRoady 1.4.2</text>
<text text-anchor="start" x="8" y="-223.6" font-family="Times,serif" font-size="13.00">http://railroady.prestonlee.com</text>
</g>
<!-- MainPage -->
<g id="node2" class="node"><title>MainPage</title>
<ellipse fill="none" stroke="black" cx="323" cy="-18" rx="46.1964" ry="18"/>
<text text-anchor="middle" x="323" y="-14.3" font-family="Times,serif" font-size="14.00">MainPage</text>
</g>
<!-- PendingContributor -->
<g id="node3" class="node"><title>PendingContributor</title>
<ellipse fill="none" stroke="black" cx="468" cy="-18" rx="80.389" ry="18"/>
<text text-anchor="middle" x="468" y="-14.3" font-family="Times,serif" font-size="14.00">PendingContributor</text>
</g>
<!-- HotelPicture -->
<g id="node4" class="node"><title>HotelPicture</title>
<ellipse fill="none" stroke="black" cx="214" cy="-90" rx="55.3682" ry="18"/>
<text text-anchor="middle" x="214" y="-86.3" font-family="Times,serif" font-size="14.00">HotelPicture</text>
</g>
<!-- Agenda -->
<g id="node5" class="node"><title>Agenda</title>
<ellipse fill="none" stroke="black" cx="220" cy="-18" rx="38.0212" ry="18"/>
<text text-anchor="middle" x="220" y="-14.3" font-family="Times,serif" font-size="14.00">Agenda</text>
</g>
<!-- Ability -->
<g id="node6" class="node"><title>Ability</title>
<polygon fill="none" stroke="black" points="359.25,-273 304.75,-273 304.75,-237 359.25,-237 359.25,-273"/>
<text text-anchor="middle" x="332" y="-251.3" font-family="Times,serif" font-size="14.00">Ability</text>
</g>
<!-- EventUser -->
<g id="node7" class="node"><title>EventUser</title>
<ellipse fill="none" stroke="black" cx="116" cy="-18" rx="48.1437" ry="18"/>
<text text-anchor="middle" x="116" y="-14.3" font-family="Times,serif" font-size="14.00">EventUser</text>
</g>
<!-- Hotel -->
<g id="node8" class="node"><title>Hotel</title>
<ellipse fill="none" stroke="black" cx="229" cy="-162" rx="30.3206" ry="18"/>
<text text-anchor="middle" x="229" y="-158.3" font-family="Times,serif" font-size="14.00">Hotel</text>
</g>
<!-- Hotel&#45;&gt;HotelPicture -->
<g id="edge2" class="edge"><title>Hotel&#45;&gt;HotelPicture</title>
<path fill="none" stroke="#301786" d="M223.64,-135.987C222.411,-130.249 221.097,-124.121 219.848,-118.293"/>
<ellipse fill="none" stroke="#301786" cx="224.531" cy="-140.144" rx="4.00001" ry="4.00001"/>
<polygon fill="#301786" stroke="#301786" points="219.797,-118.053 222.102,-107.332 218.75,-113.164 217.702,-108.275 217.702,-108.275 217.702,-108.275 218.75,-113.164 213.302,-109.218 219.797,-118.053 219.797,-118.053"/>
</g>
<!-- Event -->
<g id="node11" class="node"><title>Event</title>
<ellipse fill="none" stroke="black" cx="318" cy="-90" rx="31.2965" ry="18"/>
<text text-anchor="middle" x="318" y="-86.3" font-family="Times,serif" font-size="14.00">Event</text>
</g>
<!-- Hotel&#45;&gt;Event -->
<g id="edge1" class="edge"><title>Hotel&#45;&gt;Event</title>
<path fill="none" stroke="#8dc91f" d="M254.716,-140.774C266.432,-131.559 280.277,-120.67 292.025,-111.43"/>
<polygon fill="#8dc91f" stroke="#8dc91f" points="254.444,-140.988 243.802,-143.633 250.514,-144.079 246.584,-147.17 246.584,-147.17 246.584,-147.17 250.514,-144.079 249.366,-150.707 254.444,-140.988 254.444,-140.988"/>
<polygon fill="#8dc91f" stroke="#8dc91f" points="292.288,-111.223 302.93,-108.578 296.218,-108.132 300.148,-105.041 300.148,-105.041 300.148,-105.041 296.218,-108.132 297.366,-101.504 292.288,-111.223 292.288,-111.223"/>
</g>
<!-- Guest -->
<g id="node9" class="node"><title>Guest</title>
<ellipse fill="none" stroke="black" cx="347" cy="-162" rx="31.2965" ry="18"/>
<text text-anchor="middle" x="347" y="-158.3" font-family="Times,serif" font-size="14.00">Guest</text>
</g>
<!-- Guest&#45;&gt;Event -->
<g id="edge3" class="edge"><title>Guest&#45;&gt;Event</title>
<path fill="none" stroke="#d538ed" d="M336.252,-135.056C333.85,-129.258 331.3,-123.104 328.892,-117.291"/>
<polygon fill="#d538ed" stroke="#d538ed" points="336.3,-135.172 335.97,-146.133 338.214,-139.792 340.127,-144.411 340.127,-144.411 340.127,-144.411 338.214,-139.792 344.285,-142.689 336.3,-135.172 336.3,-135.172"/>
<polygon fill="#d538ed" stroke="#d538ed" points="328.852,-117.195 329.182,-106.234 326.938,-112.575 325.025,-107.956 325.025,-107.956 325.025,-107.956 326.938,-112.575 320.867,-109.679 328.852,-117.195 328.852,-117.195"/>
</g>
<!-- User -->
<g id="node10" class="node"><title>User</title>
<ellipse fill="none" stroke="black" cx="259" cy="-255" rx="26.949" ry="18"/>
<text text-anchor="middle" x="259" y="-251.3" font-family="Times,serif" font-size="14.00">User</text>
</g>
<!-- User&#45;&gt;PendingContributor -->
<g id="edge7" class="edge"><title>User&#45;&gt;PendingContributor</title>
<path fill="none" stroke="#e3419a" d="M276.513,-232.88C282.262,-226.858 288.988,-220.672 296,-216 332.196,-191.884 354.901,-209.35 387,-180 427.389,-143.07 450.399,-81.4485 460.924,-46.1141"/>
<ellipse fill="none" stroke="#e3419a" cx="273.814" cy="-235.832" rx="4.00002" ry="4.00002"/>
<polygon fill="#e3419a" stroke="#e3419a" points="461.052,-45.6652 468.122,-37.283 462.424,-40.8569 463.795,-36.0487 463.795,-36.0487 463.795,-36.0487 462.424,-40.8569 459.468,-34.8143 461.052,-45.6652 461.052,-45.6652"/>
</g>
<!-- User&#45;&gt;EventUser -->
<g id="edge4" class="edge"><title>User&#45;&gt;EventUser</title>
<path fill="none" stroke="#af4db8" d="M239.072,-233.488C219.89,-213.655 193.185,-185.775 189,-180 157.994,-137.207 135.672,-79.1435 124.38,-45.7109"/>
<ellipse fill="none" stroke="#af4db8" cx="241.968" cy="-236.478" rx="4.00002" ry="4.00002"/>
<polygon fill="#af4db8" stroke="#af4db8" points="124.365,-45.6667 125.506,-34.7602 122.799,-40.9185 121.232,-36.1702 121.232,-36.1702 121.232,-36.1702 122.799,-40.9185 116.959,-37.5802 124.365,-45.6667 124.365,-45.6667"/>
</g>
<!-- User&#45;&gt;Hotel -->
<g id="edge6" class="edge"><title>User&#45;&gt;Hotel</title>
<path fill="none" stroke="#c720f9" d="M250.937,-229.543C246.852,-217.152 241.887,-202.09 237.714,-189.432"/>
<ellipse fill="none" stroke="#c720f9" cx="252.245" cy="-233.51" rx="4.00001" ry="4.00001"/>
<polygon fill="#c720f9" stroke="#c720f9" points="237.7,-189.39 238.843,-178.484 236.135,-184.642 234.569,-179.893 234.569,-179.893 234.569,-179.893 236.135,-184.642 230.295,-181.302 237.7,-189.39 237.7,-189.39"/>
</g>
<!-- User&#45;&gt;Event -->
<g id="edge5" class="edge"><title>User&#45;&gt;Event</title>
<path fill="none" stroke="#f954d3" d="M268.588,-227.511C279.565,-197.185 297.44,-147.802 308.415,-117.48"/>
<polygon fill="#f954d3" stroke="#f954d3" points="268.495,-227.767 260.86,-235.638 266.794,-232.469 265.092,-237.17 265.092,-237.17 265.092,-237.17 266.794,-232.469 269.323,-238.702 268.495,-227.767 268.495,-227.767"/>
<polygon fill="#f954d3" stroke="#f954d3" points="308.449,-117.386 316.084,-109.514 310.151,-112.684 311.853,-107.983 311.853,-107.983 311.853,-107.983 310.151,-112.684 307.622,-106.451 308.449,-117.386 308.449,-117.386"/>
</g>
<!-- Event&#45;&gt;MainPage -->
<g id="edge9" class="edge"><title>Event&#45;&gt;MainPage</title>
<path fill="none" stroke="#1a1f62" d="M319.811,-63.6398C320.261,-57.348 320.742,-50.6053 321.192,-44.3156"/>
<ellipse fill="none" stroke="#1a1f62" cx="319.521" cy="-67.7068" rx="4" ry="4"/>
<ellipse fill="#1a1f62" stroke="#1a1f62" cx="321.493" cy="-40.0942" rx="4" ry="4"/>
</g>
<!-- Event&#45;&gt;PendingContributor -->
<g id="edge11" class="edge"><title>Event&#45;&gt;PendingContributor</title>
<path fill="none" stroke="#436f1b" d="M348.853,-74.602C370.938,-64.2957 400.953,-50.2886 425.332,-38.912"/>
<ellipse fill="none" stroke="#436f1b" cx="345.062" cy="-76.3709" rx="4.00002" ry="4.00002"/>
<polygon fill="#436f1b" stroke="#436f1b" points="425.648,-38.7642 436.613,-38.6131 430.179,-36.6497 434.71,-34.5353 434.71,-34.5353 434.71,-34.5353 430.179,-36.6497 432.807,-30.4574 425.648,-38.7642 425.648,-38.7642"/>
</g>
<!-- Event&#45;&gt;Agenda -->
<g id="edge10" class="edge"><title>Event&#45;&gt;Agenda</title>
<path fill="none" stroke="#910a03" d="M292.428,-70.734C278.424,-60.7316 261.082,-48.3445 246.879,-38.1992"/>
<ellipse fill="none" stroke="#910a03" cx="295.85" cy="-73.1783" rx="4.00002" ry="4.00002"/>
<ellipse fill="#910a03" stroke="#910a03" cx="243.442" cy="-35.7441" rx="4.00002" ry="4.00002"/>
</g>
<!-- Event&#45;&gt;EventUser -->
<g id="edge8" class="edge"><title>Event&#45;&gt;EventUser</title>
<path fill="none" stroke="#e5f1b6" d="M286.509,-75.3198C283.645,-74.1653 280.777,-73.0423 278,-72 239.334,-57.4889 194.679,-43.0478 162.058,-32.9132"/>
<ellipse fill="none" stroke="#e5f1b6" cx="290.323" cy="-76.8911" rx="4.00002" ry="4.00002"/>
<polygon fill="#e5f1b6" stroke="#e5f1b6" points="161.894,-32.8628 153.668,-25.6114 157.117,-31.3868 152.34,-29.9109 152.34,-29.9109 152.34,-29.9109 157.117,-31.3868 151.011,-34.2104 161.894,-32.8628 161.894,-32.8628"/>
</g>
</g>
</svg>
